<svg width="1307" height="375" viewBox="0 0 1307 375" fill="none" xmlns="http://www.w3.org/2000/svg">
<ellipse cx="197.307" cy="186.548" rx="57.3067" ry="54.5485" fill="#F7B70D"/>
<path d="M175.401 2.10489C164.886 5.7081 157.736 10.6458 152.689 17.8522C139.931 36.2686 142.174 58.1547 158.297 73.1013C167.69 81.7757 174.28 84.0444 193.908 85.2455C230.079 87.5141 249.427 96.1885 276.906 122.745C286.86 132.354 290.786 137.158 294.151 144.231C308.451 174.525 305.507 211.491 286.3 239.516C283.355 243.786 265.41 262.336 246.202 280.619C227.135 299.035 211.433 314.516 211.433 315.05C211.433 315.584 217.742 327.461 225.453 341.607C233.164 355.619 239.333 367.363 239.052 367.496C238.772 367.763 209.891 340.539 174.7 306.909C106.984 242.185 103.339 238.048 96.4688 219.231C91.9824 207.087 91.001 201.349 89.599 183.199C88.4774 168.519 87.9166 165.85 84.2714 159.578C69.6906 134.89 35.2014 129.952 14.0312 149.569C2.39463 160.245 -1.11037 171.989 0.291633 194.81C3.37603 243.786 22.8638 285.957 57.7736 319.187C85.6734 345.744 118.761 362.692 158.577 370.966C179.047 375.103 214.377 375.103 234.846 370.966C322.051 352.95 383.879 287.292 392.291 203.484C398.179 144.765 372.382 83.9109 325.275 45.6102C289.664 16.6512 249.427 1.70453 203.021 0.236572C185.496 -0.297241 181.71 -0.0303345 175.401 2.10489Z" fill="black"/>
<path d="M426.845 166.342H457.872L484.191 230.521H485.406L511.725 166.342H542.752V270H518.356V206.327H517.495L492.593 269.342H477.004L452.102 205.973H451.241V270H426.845V166.342ZM558.379 270V166.342H630.656V186.689H583.433V207.947H626.961V228.344H583.433V249.653H630.656V270H558.379ZM714.372 200.203C713.799 198.077 712.955 196.204 711.841 194.585C710.728 192.931 709.361 191.531 707.742 190.384C706.122 189.237 704.266 188.376 702.174 187.802C700.082 187.195 697.788 186.891 695.291 186.891C690.263 186.891 685.91 188.106 682.232 190.536C678.588 192.965 675.77 196.508 673.78 201.165C671.789 205.787 670.793 211.406 670.793 218.019C670.793 224.666 671.755 230.335 673.678 235.026C675.602 239.716 678.385 243.293 682.03 245.756C685.674 248.219 690.094 249.451 695.291 249.451C699.88 249.451 703.76 248.708 706.932 247.224C710.137 245.705 712.567 243.562 714.22 240.796C715.874 238.029 716.7 234.772 716.7 231.027L721.357 231.584H696.151V213.312H740.843V227.028C740.843 236.308 738.869 244.254 734.922 250.868C731.007 257.481 725.609 262.56 718.725 266.103C711.875 269.646 703.996 271.417 695.088 271.417C685.201 271.417 676.513 269.275 669.022 264.989C661.531 260.704 655.693 254.596 651.509 246.667C647.325 238.704 645.233 229.256 645.233 218.323C645.233 209.82 646.498 202.278 649.029 195.698C651.56 189.085 655.086 183.483 659.608 178.894C664.163 174.305 669.427 170.83 675.399 168.468C681.405 166.106 687.867 164.925 694.784 164.925C700.791 164.925 706.375 165.785 711.538 167.506C716.734 169.227 721.323 171.657 725.305 174.795C729.32 177.933 732.576 181.661 735.073 185.98C737.57 190.299 739.123 195.04 739.73 200.203H714.372ZM774.831 270H747.904L782.879 166.342H816.233L851.208 270H824.281L799.936 192.459H799.126L774.831 270ZM771.237 229.205H827.52V248.236H771.237V229.205ZM951.589 203.898H926.281C925.944 201.3 925.252 198.954 924.206 196.862C923.16 194.77 921.777 192.982 920.056 191.497C918.335 190.013 916.294 188.882 913.932 188.106C911.603 187.296 909.022 186.891 906.188 186.891C901.16 186.891 896.824 188.123 893.18 190.586C889.569 193.049 886.785 196.609 884.828 201.266C882.905 205.922 881.943 211.557 881.943 218.171C881.943 225.055 882.922 230.825 884.879 235.481C886.87 240.104 889.654 243.596 893.23 245.958C896.841 248.286 901.109 249.451 906.036 249.451C908.803 249.451 911.316 249.096 913.577 248.388C915.872 247.679 917.879 246.65 919.6 245.3C921.355 243.917 922.789 242.247 923.903 240.289C925.05 238.299 925.843 236.055 926.281 233.558L951.589 233.71C951.15 238.299 949.817 242.82 947.59 247.274C945.397 251.728 942.377 255.794 938.53 259.472C934.683 263.116 929.993 266.018 924.459 268.178C918.959 270.337 912.649 271.417 905.53 271.417C896.149 271.417 887.747 269.359 880.324 265.242C872.934 261.092 867.096 255.052 862.811 247.122C858.526 239.193 856.383 229.542 856.383 218.171C856.383 206.766 858.56 197.099 862.912 189.169C867.265 181.239 873.153 175.216 880.577 171.1C888 166.983 896.318 164.925 905.53 164.925C911.806 164.925 917.609 165.802 922.941 167.557C928.272 169.278 932.962 171.808 937.012 175.149C941.061 178.456 944.351 182.522 946.881 187.347C949.412 192.172 950.981 197.689 951.589 203.898ZM990.979 166.342V270H965.925V166.342H990.979ZM1003.32 186.689V166.342H1090.93V186.689H1059.5V270H1034.8V186.689H1003.32ZM1098 166.342H1125.99L1147.91 209.718H1148.82L1170.74 166.342H1198.73L1160.82 235.38V270H1135.91V235.38L1098 166.342Z" fill="black"/>
</svg>
